# Tiled2Unity generated file. Do not modify by hand.
# Wavefront file for 'Level-4_mesh_0002.obj'

# Vertices (Count = 20)
v -51 -51 0
v -52 -51 0
v -52 -50 0
v -51 -50 0
v -52 -51 0
v -53 -51 0
v -53 -50 0
v -52 -50 0
v -53 -51 0
v -54 -51 0
v -54 -50 0
v -53 -50 0
v -51 -52 0
v -52 -52 0
v -52 -51 0
v -51 -51 0
v -51 -53 0
v -52 -53 0
v -52 -52 0
v -51 -52 0

# Texture cooridinates (Count = 4)
vt 0 0.625
vt 0.125 0.625
vt 0.125 0.75
vt 0 0.75

# Normal
vn 0 0 -1

# Mesh description
g Level-4_mesh_0002

# Faces
f 1/1/1 2/2/1 3/3/1 4/4/1
f 5/1/1 6/2/1 7/3/1 8/4/1
f 9/1/1 10/2/1 11/3/1 12/4/1
f 13/1/1 14/2/1 15/3/1 16/4/1
f 17/1/1 18/2/1 19/3/1 20/4/1

